<mxfile host="app.diagrams.net" modified="2022-01-16T11:30:59.543Z" agent="5.0 (Windows NT 10.0; Win64; x64) AppleWebKit/537.36 (KHTML, like Gecko) Chrome/91.0.4472.77 Safari/537.36" etag="hw3eHdkHPDIwMKQudmmo" version="15.8.2" type="github">
  <diagram id="D_OobBFg-EGwwnHSkfxk" name="Page-1">
    <mxGraphModel dx="942" dy="582" grid="1" gridSize="10" guides="1" tooltips="1" connect="1" arrows="1" fold="1" page="1" pageScale="1" pageWidth="827" pageHeight="1169" math="0" shadow="0">
      <root>
        <mxCell id="0" />
        <mxCell id="1" parent="0" />
        <mxCell id="A1NysIuDOMxNaUPtOu9Z-16" value="" style="rounded=0;whiteSpace=wrap;html=1;fillColor=#f8cecc;strokeColor=#b85450;" vertex="1" parent="1">
          <mxGeometry x="490" y="270" width="140" height="280" as="geometry" />
        </mxCell>
        <mxCell id="A1NysIuDOMxNaUPtOu9Z-8" value="" style="edgeStyle=orthogonalEdgeStyle;rounded=0;orthogonalLoop=1;jettySize=auto;html=1;" edge="1" parent="1" source="A1NysIuDOMxNaUPtOu9Z-2" target="A1NysIuDOMxNaUPtOu9Z-3">
          <mxGeometry relative="1" as="geometry" />
        </mxCell>
        <mxCell id="A1NysIuDOMxNaUPtOu9Z-2" value="Fixed Stage" style="rounded=0;whiteSpace=wrap;html=1;" vertex="1" parent="1">
          <mxGeometry x="294" y="280" width="120" height="60" as="geometry" />
        </mxCell>
        <mxCell id="A1NysIuDOMxNaUPtOu9Z-3" value="Source Stage" style="rounded=0;whiteSpace=wrap;html=1;" vertex="1" parent="1">
          <mxGeometry x="294" y="380" width="120" height="60" as="geometry" />
        </mxCell>
        <mxCell id="A1NysIuDOMxNaUPtOu9Z-12" value="" style="edgeStyle=orthogonalEdgeStyle;rounded=0;orthogonalLoop=1;jettySize=auto;html=1;" edge="1" parent="1" source="A1NysIuDOMxNaUPtOu9Z-4" target="A1NysIuDOMxNaUPtOu9Z-10">
          <mxGeometry relative="1" as="geometry" />
        </mxCell>
        <mxCell id="A1NysIuDOMxNaUPtOu9Z-4" value="Get Clickhouse meta Info" style="rounded=0;whiteSpace=wrap;html=1;" vertex="1" parent="1">
          <mxGeometry x="500" y="280" width="120" height="60" as="geometry" />
        </mxCell>
        <mxCell id="A1NysIuDOMxNaUPtOu9Z-5" value="" style="rounded=0;whiteSpace=wrap;html=1;" vertex="1" parent="1">
          <mxGeometry x="730" y="585" width="120" height="60" as="geometry" />
        </mxCell>
        <mxCell id="A1NysIuDOMxNaUPtOu9Z-7" value="" style="edgeStyle=orthogonalEdgeStyle;rounded=0;orthogonalLoop=1;jettySize=auto;html=1;" edge="1" parent="1" source="A1NysIuDOMxNaUPtOu9Z-6" target="A1NysIuDOMxNaUPtOu9Z-2">
          <mxGeometry relative="1" as="geometry" />
        </mxCell>
        <mxCell id="A1NysIuDOMxNaUPtOu9Z-6" value="Single Stage" style="rounded=0;whiteSpace=wrap;html=1;" vertex="1" parent="1">
          <mxGeometry x="294" y="160" width="120" height="60" as="geometry" />
        </mxCell>
        <mxCell id="A1NysIuDOMxNaUPtOu9Z-13" value="" style="edgeStyle=orthogonalEdgeStyle;rounded=0;orthogonalLoop=1;jettySize=auto;html=1;" edge="1" parent="1" source="A1NysIuDOMxNaUPtOu9Z-10" target="A1NysIuDOMxNaUPtOu9Z-11">
          <mxGeometry relative="1" as="geometry" />
        </mxCell>
        <mxCell id="A1NysIuDOMxNaUPtOu9Z-10" value="Split Sql" style="rounded=0;whiteSpace=wrap;html=1;" vertex="1" parent="1">
          <mxGeometry x="500" y="380" width="120" height="60" as="geometry" />
        </mxCell>
        <mxCell id="A1NysIuDOMxNaUPtOu9Z-11" value="Parallel fetch data" style="rounded=0;whiteSpace=wrap;html=1;" vertex="1" parent="1">
          <mxGeometry x="500" y="480" width="120" height="60" as="geometry" />
        </mxCell>
        <mxCell id="A1NysIuDOMxNaUPtOu9Z-14" value="" style="html=1;shadow=0;dashed=0;align=center;verticalAlign=middle;shape=mxgraph.arrows2.arrow;dy=0.6;dx=40;notch=0;" vertex="1" parent="1">
          <mxGeometry x="421" y="397" width="68" height="29" as="geometry" />
        </mxCell>
      </root>
    </mxGraphModel>
  </diagram>
</mxfile>
